<svg width="270" height="56" viewBox="0 0 270 56" fill="none" xmlns="http://www.w3.org/2000/svg">
<g clip-path="url(#clip0_1_3536)">
<path d="M0.331696 35.704L10.6026 46.7355H74.5369L82.8177 55.6294H179.281L184.393 50.1395H243.35L254.78 37.8629V32.3249L269.668 16.3272V10.7411L259.999 0.356201H15.5068L0.401352 16.5784L0.331696 35.704Z" stroke="#BB0AF9" stroke-width="4" stroke-miterlimit="10"/>
<path d="M0.000152588 35.3478L10.2711 46.3793H74.2054L82.4861 55.2732H178.95L184.061 49.7833H243.018L254.449 37.5067V31.9687L269.337 15.971V10.3849L259.668 0H15.1752L0.0698086 16.2222L0.000152588 35.3478Z" fill="url(#paint0_linear_1_3536)"/>
<path d="M73.3876 50.0096L78.4459 55.4425H72.5583L67.4585 49.9651L73.3876 50.0096Z" fill="#BB0AF9"/>
<path d="M63.9343 50.0096L68.9926 55.4425H63.105L58.0052 49.9651L63.9343 50.0096Z" fill="#BB0AF9"/>
<path d="M54.481 50.0096L59.5393 55.4425H53.6517L48.5519 49.9651L54.481 50.0096Z" fill="#BB0AF9"/>
<path d="M45.0276 50.0096L50.086 55.4425H44.1984L39.0986 49.9651L45.0276 50.0096Z" fill="#BB0AF9"/>
<path d="M35.5743 50.0096L40.6327 55.4425H34.7451L29.6453 49.9651L35.5743 50.0096Z" fill="#BB0AF9"/>
<path d="M26.121 50.0096L31.1794 55.4425H25.2918L20.192 49.9651L26.121 50.0096Z" fill="#BB0AF9"/>
<path d="M0.248764 10.6432V0.311768H10.5313L0.248764 11.3557V10.6432Z" fill="#BB0AF9"/>
<path d="M263.104 23.3777H258.474L235.96 47.5586H199.929L197.568 50.0969H243.381L254.783 37.8506V32.3749L263.104 23.3777Z" fill="url(#paint1_linear_1_3536)"/>
</g>
<defs>
<linearGradient id="paint0_linear_1_3536" x1="9.50016" y1="28" x2="294" y2="131.5" gradientUnits="userSpaceOnUse">
<stop offset="0.0001" stop-color="#BB0AF9"/>
<stop offset="1" stop-color="#1A063E" stop-opacity="0"/>
</linearGradient>
<linearGradient id="paint1_linear_1_3536" x1="180.513" y1="36.7373" x2="277.328" y2="36.7373" gradientUnits="userSpaceOnUse">
<stop offset="0.0001" stop-color="#E855DE"/>
<stop offset="1" stop-color="#5400EE"/>
</linearGradient>
<clipPath id="clip0_1_3536">
<rect width="270" height="56" fill="white"/>
</clipPath>
</defs>
</svg>
